{
    "accessors" : [
        {
            "bufferView" : 0,
            "componentType" : 5121,
            "count" : 18,
            "max" : [
                7
            ],
            "min" : [
                0
            ],
            "type" : "SCALAR"
        },
        {
            "bufferView" : 1,
            "componentType" : 5126,
            "count" : 8,
            "max" : [
                43.429656982421875,
                93.75830841064453,
                -172.66615295410156
            ],
            "min" : [
                -45.190486907958984,
                65.78661346435547,
                -233.36776733398438
            ],
            "type" : "VEC3"
        },
        {
            "bufferView" : 2,
            "componentType" : 5126,
            "count" : 8,
            "max" : [
                0.460768461227417,
                0.9794915318489075,
                -0.12872707843780518
            ],
            "min" : [
                -0.5155797004699707,
                0.7578051090240479,
                -0.40961942076683044
            ],
            "type" : "VEC3"
        },
        {
            "bufferView" : 3,
            "componentType" : 5126,
            "count" : 8,
            "max" : [
                -0.5434712171554565,
                0.8333609104156494,
                0.17970995604991913,
                1.0
            ],
            "min" : [
                -0.9988592863082886,
                -0.8384770750999451,
                -0.10962775349617004,
                1.0
            ],
            "type" : "VEC4"
        },
        {
            "bufferView" : 4,
            "componentType" : 5126,
            "count" : 8,
            "max" : [
                1.051759958267212,
                1.0229499991983175
            ],
            "min" : [
                -0.04307100176811218,
                -0.08410000801086426
            ],
            "type" : "VEC2"
        },
        {
            "bufferView" : 5,
            "componentType" : 5121,
            "count" : 18,
            "max" : [
                6
            ],
            "min" : [
                0
            ],
            "type" : "SCALAR"
        },
        {
            "bufferView" : 6,
            "componentType" : 5126,
            "count" : 7,
            "max" : [
                39.75727081298828,
                98.5569076538086,
                -158.441162109375
            ],
            "min" : [
                -42.49794387817383,
                74.20191192626953,
                -187.38658142089844
            ],
            "type" : "VEC3"
        },
        {
            "bufferView" : 7,
            "componentType" : 5126,
            "count" : 7,
            "max" : [
                0.4193548262119293,
                0.9877315759658813,
                0.634907066822052
            ],
            "min" : [
                -0.39939573407173157,
                0.7721182703971863,
                -0.3784905672073364
            ],
            "type" : "VEC3"
        },
        {
            "bufferView" : 8,
            "componentType" : 5126,
            "count" : 7,
            "max" : [
                -0.6889757513999939,
                0.6988027095794678,
                0.21449318528175354,
                1.0
            ],
            "min" : [
                -0.9986668825149536,
                -0.7244061231613159,
                -0.11641217768192291,
                1.0
            ],
            "type" : "VEC4"
        },
        {
            "bufferView" : 9,
            "componentType" : 5126,
            "count" : 7,
            "max" : [
                1.0210000276565552,
                0.9523900002241135
            ],
            "min" : [
                -0.022220000624656677,
                -0.04346001148223877
            ],
            "type" : "VEC2"
        },
        {
            "bufferView" : 10,
            "componentType" : 5123,
            "count" : 1050,
            "max" : [
                374
            ],
            "min" : [
                0
            ],
            "type" : "SCALAR"
        },
        {
            "bufferView" : 11,
            "componentType" : 5126,
            "count" : 375,
            "max" : [
                78.63402557373047,
                97.05521392822266,
                1.516427993774414
            ],
            "min" : [
                -82.1351547241211,
                -144.8174591064453,
                -255.77447509765625
            ],
            "type" : "VEC3"
        },
        {
            "bufferView" : 12,
            "componentType" : 5126,
            "count" : 375,
            "max" : [
                0.9977721571922302,
                0.9953306913375854,
                0.999908447265625
            ],
            "min" : [
                -0.9977111220359802,
                -0.9959715604782104,
                -0.9981383681297302
            ],
            "type" : "VEC3"
        },
        {
            "bufferView" : 13,
            "componentType" : 5126,
            "count" : 375,
            "max" : [
                1.0,
                0.9990628957748413,
                0.9089810848236084,
                1.0
            ],
            "min" : [
                -0.9998553395271301,
                -0.999210774898529,
                -0.9616665244102478,
                -1.0
            ],
            "type" : "VEC4"
        },
        {
            "bufferView" : 14,
            "componentType" : 5126,
            "count" : 375,
            "max" : [
                0.9367650151252747,
                0.9515380002558231
            ],
            "min" : [
                -0.0008169999928213656,
                -0.07916104793548584
            ],
            "type" : "VEC2"
        }
    ],
    "asset" : {
        "generator" : "Khronos Blender glTF 2.0 exporter",
        "version" : "2.0"
    },
    "bufferViews" : [
        {
            "buffer" : 0,
            "byteLength" : 18,
            "byteOffset" : 0,
            "target" : 34963
        },
        {
            "buffer" : 0,
            "byteLength" : 96,
            "byteOffset" : 20,
            "target" : 34962
        },
        {
            "buffer" : 0,
            "byteLength" : 96,
            "byteOffset" : 116,
            "target" : 34962
        },
        {
            "buffer" : 0,
            "byteLength" : 128,
            "byteOffset" : 212,
            "target" : 34962
        },
        {
            "buffer" : 0,
            "byteLength" : 64,
            "byteOffset" : 340,
            "target" : 34962
        },
        {
            "buffer" : 0,
            "byteLength" : 18,
            "byteOffset" : 404,
            "target" : 34963
        },
        {
            "buffer" : 0,
            "byteLength" : 84,
            "byteOffset" : 424,
            "target" : 34962
        },
        {
            "buffer" : 0,
            "byteLength" : 84,
            "byteOffset" : 508,
            "target" : 34962
        },
        {
            "buffer" : 0,
            "byteLength" : 112,
            "byteOffset" : 592,
            "target" : 34962
        },
        {
            "buffer" : 0,
            "byteLength" : 56,
            "byteOffset" : 704,
            "target" : 34962
        },
        {
            "buffer" : 0,
            "byteLength" : 2100,
            "byteOffset" : 760,
            "target" : 34963
        },
        {
            "buffer" : 0,
            "byteLength" : 4500,
            "byteOffset" : 2860,
            "target" : 34962
        },
        {
            "buffer" : 0,
            "byteLength" : 4500,
            "byteOffset" : 7360,
            "target" : 34962
        },
        {
            "buffer" : 0,
            "byteLength" : 6000,
            "byteOffset" : 11860,
            "target" : 34962
        },
        {
            "buffer" : 0,
            "byteLength" : 3000,
            "byteOffset" : 17860,
            "target" : 34962
        }
    ],
    "buffers" : [
        {
            "byteLength" : 20860,
            "uri" : "squirtle.bin"
        }
    ],
    "images" : [
        {
            "name" : "eye1",
            "uri" : "eye1.png"
        },
        {
            "name" : "mouth1",
            "uri" : "mouth1.png"
        },
        {
            "name" : "squirtletex",
            "uri" : "squirtletex.png"
        }
    ],
    "materials" : [
        {
            "alphaMode" : "BLEND",
            "name" : "eyes",
            "pbrMetallicRoughness" : {
                "baseColorFactor" : [
                    0.800000011920929,
                    0.800000011920929,
                    0.800000011920929,
                    1.0
                ],
                "baseColorTexture" : {
                    "index" : 0
                },
                "metallicFactor" : 0.0
            }
        },
        {
            "alphaMode" : "BLEND",
            "name" : "mouth",
            "pbrMetallicRoughness" : {
                "baseColorFactor" : [
                    0.800000011920929,
                    0.800000011920929,
                    0.800000011920929,
                    1.0
                ],
                "baseColorTexture" : {
                    "index" : 1
                },
                "metallicFactor" : 0.0
            }
        },
        {
            "alphaMode" : "BLEND",
            "name" : "squirtle",
            "pbrMetallicRoughness" : {
                "baseColorFactor" : [
                    0.800000011920929,
                    0.800000011920929,
                    0.800000011920929,
                    1.0
                ],
                "baseColorTexture" : {
                    "index" : 2
                },
                "metallicFactor" : 0.0
            }
        }
    ],
    "meshes" : [
        {
            "name" : "DrawCall_46",
            "primitives" : [
                {
                    "attributes" : {
                        "NORMAL" : 2,
                        "POSITION" : 1,
                        "TANGENT" : 3,
                        "TEXCOORD_0" : 4
                    },
                    "indices" : 0,
                    "material" : 0
                },
                {
                    "attributes" : {
                        "NORMAL" : 7,
                        "POSITION" : 6,
                        "TANGENT" : 8,
                        "TEXCOORD_0" : 9
                    },
                    "indices" : 5,
                    "material" : 1
                },
                {
                    "attributes" : {
                        "NORMAL" : 12,
                        "POSITION" : 11,
                        "TANGENT" : 13,
                        "TEXCOORD_0" : 14
                    },
                    "indices" : 10,
                    "material" : 2
                }
            ]
        }
    ],
    "nodes" : [
        {
            "mesh" : 0,
            "name" : "model",
            "rotation" : [
                0.7071068286895752,
                0.0,
                -0.0,
                0.7071067094802856
            ]
        }
    ],
    "samplers" : [
        {}
    ],
    "scene" : 0,
    "scenes" : [
        {
            "name" : "Scene",
            "nodes" : [
                0
            ]
        }
    ],
    "textures" : [
        {
            "sampler" : 0,
            "source" : 0
        },
        {
            "sampler" : 0,
            "source" : 1
        },
        {
            "sampler" : 0,
            "source" : 2
        }
    ]
}
