{
    "accessors" : [
        {
            "bufferView" : 0,
            "componentType" : 5121,
            "count" : 186,
            "max" : [
                156
            ],
            "min" : [
                0
            ],
            "type" : "SCALAR"
        },
        {
            "bufferView" : 1,
            "componentType" : 5126,
            "count" : 157,
            "max" : [
                0.68245530128479,
                0.8407064080238342,
                1.2281748056411743
            ],
            "min" : [
                -0.6824553608894348,
                -0.485929012298584,
                -1.228174090385437
            ],
            "type" : "VEC3"
        },
        {
            "bufferView" : 2,
            "componentType" : 5126,
            "count" : 157,
            "max" : [
                1.0,
                1.0,
                0.9999999403953552
            ],
            "min" : [
                -1.0,
                -1.0,
                -1.0
            ],
            "type" : "VEC3"
        },
        {
            "bufferView" : 3,
            "componentType" : 5126,
            "count" : 157,
            "max" : [
                0.9998706579208374,
                0.5477620363235474,
                0.9997614622116089,
                1.0
            ],
            "min" : [
                -0.9998706579208374,
                -0.5107600688934326,
                -0.9998693466186523,
                1.0
            ],
            "type" : "VEC4"
        },
        {
            "bufferView" : 4,
            "componentType" : 5126,
            "count" : 157,
            "max" : [
                1.0105012655258179,
                0.9918641932308674
            ],
            "min" : [
                0.015520423650741577,
                0.0551486611366272
            ],
            "type" : "VEC2"
        },
        {
            "bufferView" : 5,
            "componentType" : 5126,
            "count" : 157,
            "max" : [
                1.0,
                1.0,
                1.0,
                1.0
            ],
            "min" : [
                0.0,
                0.0,
                0.0,
                1.0
            ],
            "type" : "VEC4"
        }
    ],
    "asset" : {
        "generator" : "Khronos Blender glTF 2.0 exporter",
        "version" : "2.0"
    },
    "bufferViews" : [
        {
            "buffer" : 0,
            "byteLength" : 186,
            "byteOffset" : 0,
            "target" : 34963
        },
        {
            "buffer" : 0,
            "byteLength" : 1884,
            "byteOffset" : 188,
            "target" : 34962
        },
        {
            "buffer" : 0,
            "byteLength" : 1884,
            "byteOffset" : 2072,
            "target" : 34962
        },
        {
            "buffer" : 0,
            "byteLength" : 2512,
            "byteOffset" : 3956,
            "target" : 34962
        },
        {
            "buffer" : 0,
            "byteLength" : 1256,
            "byteOffset" : 6468,
            "target" : 34962
        },
        {
            "buffer" : 0,
            "byteLength" : 2512,
            "byteOffset" : 7724,
            "target" : 34962
        }
    ],
    "buffers" : [
        {
            "byteLength" : 10236,
            "uri" : "data:application/octet-stream;base64,"
        }
    ],
    "materials" : [
        {
            "name" : "Material",
            "pbrMetallicRoughness" : {
                "baseColorFactor" : [
                    0.6400000190734865,
                    0.6400000190734865,
                    0.6400000190734865,
                    1.0
                ],
                "metallicFactor" : 0.0
            }
        }
    ],
    "meshes" : [
        {
            "name" : "Cube",
            "primitives" : [
                {
                    "attributes" : {
                        "COLOR_0" : 5,
                        "NORMAL" : 2,
                        "POSITION" : 1,
                        "TANGENT" : 3,
                        "TEXCOORD_0" : 4
                    },
                    "indices" : 0,
                    "material" : 0
                }
            ]
        }
    ],
    "nodes" : [
        {
            "mesh" : 0,
            "name" : "model",
            "scale" : [
                1.5455013513565063,
                5.975677013397217,
                0.8444887399673462
            ]
        }
    ],
    "scene" : 0,
    "scenes" : [
        {
            "name" : "Scene",
            "nodes" : [
                0
            ]
        }
    ]
}
